<svg width="90" height="90" viewBox="0 0 90 90" fill="none" xmlns="http://www.w3.org/2000/svg">
<path d="M15.8203 33.3984H27.6504V45.2285C27.6504 47.2148 29.25 48.8145 31.2363 48.8145C33.2227 48.8145 34.8223 47.2148 34.8223 45.2285V33.3984H46.6523C48.6387 33.3984 50.2383 31.7988 50.2383 29.8125C50.2383 27.8262 48.6387 26.2266 46.6523 26.2266H34.8223V14.3789C34.8223 12.3926 33.2227 10.793 31.2363 10.793C29.25 10.793 27.6504 12.3926 27.6504 14.3789V26.209H15.8203C13.834 26.209 12.2344 27.8086 12.2344 29.7949C12.2344 31.7812 13.8516 33.3984 15.8203 33.3984Z" fill="#5979C1"/>
<path d="M83.5664 1.89844H66.2519C64.2656 1.89844 62.666 3.49805 62.666 5.48438V54.8437H6.48633C4.5 54.8437 2.90039 56.4434 2.90039 58.4297C2.90039 60.416 4.5 62.0156 6.48633 62.0156H66.2344C68.2207 62.0156 69.8203 60.416 69.8203 58.4297V9.08789H83.5488C85.5351 9.08789 87.1348 7.48828 87.1348 5.50195C87.1523 3.51562 85.5351 1.89844 83.5664 1.89844Z" fill="#5979C1"/>
<path d="M22.6934 63.8789C15.9961 63.8789 10.5469 69.293 10.5469 75.9551C10.5469 82.6172 15.9961 88.0313 22.6934 88.0313C29.3906 88.0313 34.8398 82.6172 34.8398 75.9551C34.8398 69.293 29.3906 63.8789 22.6934 63.8789ZM22.6934 80.8594C19.9512 80.8594 17.7187 78.6621 17.7187 75.9551C17.7187 73.2481 19.9512 71.0508 22.6934 71.0508C25.4355 71.0508 27.668 73.2481 27.668 75.9551C27.668 78.6621 25.4355 80.8594 22.6934 80.8594Z" fill="#5979C1"/>
<path d="M53.8066 63.8789C47.1094 63.8789 41.6602 69.293 41.6602 75.9551C41.6602 82.6172 47.1094 88.0313 53.8066 88.0313C60.5039 88.0313 65.9531 82.6172 65.9531 75.9551C65.9531 69.293 60.5039 63.8789 53.8066 63.8789ZM53.8066 80.8594C51.0645 80.8594 48.832 78.6621 48.832 75.9551C48.832 73.2481 51.0645 71.0508 53.8066 71.0508C56.5488 71.0508 58.7812 73.2481 58.7812 75.9551C58.7812 78.6621 56.5488 80.8594 53.8066 80.8594Z" fill="#5979C1"/>
</svg>
