<svg width="104" height="104" viewBox="0 0 104 104" fill="none" xmlns="http://www.w3.org/2000/svg">
<path d="M69.2497 74.9025L72.0781 72.0741L69.5171 69.5131L66.7152 71.8079L69.2497 74.9025ZM93.1181 98.7709L96.0035 96.0006L95.9753 95.9713L95.9465 95.9425L93.1181 98.7709ZM98.7709 93.1181L95.9425 95.9465L95.9713 95.9753L96.0006 96.0035L98.7709 93.1181ZM74.9025 69.2497L71.8079 66.7152L69.5131 69.5171L72.0741 72.0781L74.9025 69.2497ZM26.2162 37.0636C24.5944 35.5635 22.0637 35.6621 20.5636 37.2838C19.0635 38.9056 19.1621 41.4363 20.7838 42.9364L26.2162 37.0636ZM43.5 58.5L40.7838 61.4364C42.3611 62.8954 44.8092 62.8477 46.3284 61.3284L43.5 58.5ZM87.3284 20.3284C88.8905 18.7663 88.8905 16.2337 87.3284 14.6716C85.7663 13.1095 83.2337 13.1095 81.6716 14.6716L87.3284 20.3284ZM43.9759 0C19.736 0 0 19.736 0 43.9759H8C8 24.1543 24.1543 8 43.9759 8V0ZM0 43.9759C0 68.2157 19.736 87.9517 43.9759 87.9517V79.9517C24.1543 79.9517 8 63.7974 8 43.9759H0ZM43.9759 87.9517C54.5208 87.9517 64.206 84.2035 71.7841 77.9971L66.7152 71.8079C60.5026 76.8959 52.5914 79.9517 43.9759 79.9517V87.9517ZM66.4212 77.7309L90.2896 101.599L95.9465 95.9425L72.0781 72.0741L66.4212 77.7309ZM90.2326 101.541C90.9695 102.309 91.8522 102.921 92.8289 103.344L96.0028 96.0002L96.0035 96.0006L90.2326 101.541ZM92.8289 103.344C93.8055 103.766 94.8566 103.989 95.9206 104L96.002 96L96.0028 96.0002L92.8289 103.344ZM95.9206 104C96.9846 104.01 98.04 103.809 99.0251 103.407L96.0013 96.0001L96.002 96L95.9206 104ZM99.0251 103.407C100.01 103.005 100.905 102.41 101.657 101.657L96.0006 96.0006L96.0013 96.0001L99.0251 103.407ZM101.657 101.657C102.41 100.905 103.005 100.01 103.407 99.0251L96.0001 96.0013L96.0006 96.0006L101.657 101.657ZM103.407 99.0251C103.809 98.04 104.01 96.9846 104 95.9206L96 96.002L96.0001 96.0013L103.407 99.0251ZM104 95.9206C103.989 94.8566 103.766 93.8055 103.344 92.8289L96.0002 96.0028L96 96.002L104 95.9206ZM103.344 92.8289C102.921 91.8522 102.309 90.9695 101.541 90.2326L96.0006 96.0035L96.0002 96.0028L103.344 92.8289ZM101.599 90.2896L77.7309 66.4212L72.0741 72.0781L95.9425 95.9465L101.599 90.2896ZM77.9971 71.7841C84.2035 64.206 87.9517 54.5208 87.9517 43.9759H79.9517C79.9517 52.5914 76.8959 60.5026 71.8079 66.7152L77.9971 71.7841ZM87.9517 43.9759C87.9517 19.736 68.2157 0 43.9759 0V8C63.7974 8 79.9517 24.1543 79.9517 43.9759H87.9517ZM43.9759 15.9952C59.4765 15.9952 71.9565 28.4752 71.9565 43.9759H79.9565C79.9565 24.0569 63.8948 7.99517 43.9759 7.99517V15.9952ZM71.9565 43.9759C71.9565 59.4765 59.4765 71.9565 43.9759 71.9565V79.9565C63.8948 79.9565 79.9565 63.8948 79.9565 43.9759H71.9565ZM43.9759 71.9565C28.4752 71.9565 15.9952 59.4765 15.9952 43.9759H7.99517C7.99517 63.8948 24.0569 79.9565 43.9759 79.9565V71.9565ZM15.9952 43.9759C15.9952 28.4752 28.4752 15.9952 43.9759 15.9952V7.99517C24.0569 7.99517 7.99517 24.0569 7.99517 43.9759H15.9952ZM20.7838 42.9364L40.7838 61.4364L46.2162 55.5636L26.2162 37.0636L20.7838 42.9364ZM46.3284 61.3284L87.3284 20.3284L81.6716 14.6716L40.6716 55.6716L46.3284 61.3284Z" fill="#5979C1"/>
</svg>
