<svg width="185" height="47" viewBox="0 0 185 47" fill="none" xmlns="http://www.w3.org/2000/svg">
<path d="M47.3351 35.0426V7.58142H63.527V11.0385H50.6916V19.478H62.21V22.9389H50.6916V31.5855H64.4753V35.0426H47.3351Z" fill="#393939"/>
<path d="M81.5323 35.0426L75.9368 27.7141L70.3827 35.0426H66.4316L74.0441 25.2436L66.0215 15.1584H70.4241L75.9368 22.7317L81.4909 15.1584H85.8522L78.2398 25.2436L85.4797 35.0426H81.5323Z" fill="#393939"/>
<path d="M104.942 25.0779C104.942 20.6718 102.116 18.0093 97.0245 18.2503C94.6011 18.3633 90.8005 20.137 91.1618 26.4676C91.2784 28.4974 93.3706 32.4026 98.0141 32.4026C102.003 32.4026 104.942 30.0866 104.942 25.0779ZM90.9097 32.0374V45.5759H87.5117V25.3189C87.5117 20.1709 91.4703 14.6614 97.6152 14.6614C103.813 14.6614 108.517 18.6156 108.517 25.0779C108.517 31.4235 103.786 35.7468 98.3866 35.7468C95.6698 35.7468 92.174 34.6132 90.9097 32.0374Z" fill="#393939"/>
<path d="M111.354 35.0426V15.1584H114.681V17.2711C116.307 15.4183 118.835 14.7028 121.552 14.7028V18.3256C121.183 18.2842 117.157 17.7871 114.681 22.984V35.0426H111.354Z" fill="#393939"/>
<path d="M132.043 18.0093C128.806 18.0093 126.368 20.7961 126.206 23.8013H138.421C138.383 20.8789 136.28 18.0093 132.043 18.0093ZM122.545 25.0779C122.545 19.3161 126.658 14.6614 132.336 14.6614C139.377 14.6614 142.018 19.3575 142.018 25.3265V26.9307H126.248C126.492 30.6778 129.849 32.6587 132.953 32.5721C135.252 32.5081 136.818 31.8001 138.421 30.1544L140.603 32.4478C138.59 34.4249 135.915 35.7468 132.705 35.7468C126.782 35.7468 122.545 31.2954 122.545 25.0779Z" fill="#393939"/>
<path d="M143.637 32.2482C143.637 32.2482 146.101 30.0639 146.105 30.0602C146.06 30.1016 147.351 31.3782 147.486 31.4875C148.039 31.9507 148.672 32.2896 149.368 32.4741C151.509 33.0428 155.377 32.8583 155.644 29.9547C155.799 28.2977 154.553 27.3939 153.165 26.878C151.339 26.1963 149.379 25.944 147.588 25.1569C145.556 24.2644 144.254 22.6714 144.254 20.3855C144.254 14.4014 152.743 13.4072 156.6 16.2053C156.8 16.3522 158.681 18.0582 158.602 18.1222L156.107 20.0503C154.914 18.608 153.691 17.851 151.102 17.8134C149.819 17.7908 147.998 18.3519 147.625 19.7717C147.106 21.745 149.36 22.4907 150.816 22.8672C152.784 23.3756 154.903 23.6619 156.657 24.7615C158.997 26.2302 159.61 29.4124 158.689 31.8904C157.691 34.5718 154.79 35.6262 152.141 35.7467C149.021 35.8936 146.342 34.8919 144.092 32.7038C144.051 32.6662 143.637 32.2482 143.637 32.2482Z" fill="#393939"/>
<path d="M160.935 32.2482C160.935 32.2482 163.399 30.0639 163.403 30.0602C163.358 30.1016 164.649 31.3782 164.784 31.4875C165.337 31.9507 165.969 32.2896 166.666 32.4741C168.807 33.0428 172.675 32.8583 172.942 29.9547C173.096 28.2977 171.847 27.3939 170.462 26.878C168.637 26.1963 166.677 25.944 164.886 25.1569C162.854 24.2644 161.552 22.6714 161.552 20.3855C161.552 14.4014 170.041 13.4072 173.898 16.2053C174.097 16.3522 175.979 18.0582 175.9 18.1222L173.405 20.0503C172.212 18.608 170.989 17.851 168.396 17.8134C167.113 17.7908 165.296 18.3519 164.923 19.7717C164.404 21.745 166.658 22.4907 168.114 22.8672C170.082 23.3756 172.201 23.6619 173.954 24.7615C176.295 26.2302 176.908 29.4124 175.986 31.8904C174.985 34.5718 172.088 35.6262 169.439 35.7467C166.319 35.8936 163.64 34.8919 161.39 32.7038C161.348 32.6662 160.935 32.2482 160.935 32.2482Z" fill="#393939"/>
<path d="M15.3425 11.4942L10.3641 25.0779H20.7724L15.3425 11.4942ZM24.5993 35.0426L22.1722 28.4974H8.92288L6.49578 35.0426H3L13.6567 7.58142H17.4798L28.0951 35.0426H24.5993Z" fill="#393939"/>
<path d="M30.1426 35.0426H33.5518V7.58142H30.1426V35.0426Z" fill="#393939"/>
<path d="M38.7285 35.0426H42.1378V15.5728H38.7285V35.0426Z" fill="#393939"/>
<path d="M45.4798 9.22711C45.4798 9.17062 45.4873 9.11413 45.4873 9.05388C45.4873 8.99739 45.4798 8.93713 45.4798 8.88064C42.8457 8.77143 40.7347 6.65121 40.6444 4.00753C40.5992 4.00753 40.5541 4.00377 40.5089 4H40.3622C40.317 4.00377 40.2718 4.00753 40.2267 4.00753C40.1364 6.65121 38.0254 8.77143 35.3913 8.88064C35.3876 8.93713 35.3838 8.99739 35.3838 9.05388C35.3838 9.11413 35.3876 9.17062 35.3913 9.22711C38.0254 9.33632 40.1364 11.4603 40.2267 14.1002C40.2944 14.104 40.3659 14.1115 40.4337 14.1115C40.5052 14.1115 40.5729 14.104 40.6444 14.1002C40.7347 11.4603 42.8457 9.33632 45.4798 9.22711Z" fill="#393939"/>
</svg>
