<svg width="162" height="49" viewBox="0 0 162 49" fill="none" xmlns="http://www.w3.org/2000/svg">
<g clip-path="url(#clip0_2_3198)">
<path fill-rule="evenodd" clip-rule="evenodd" d="M100.502 38.3195C91.0875 45.2842 77.4423 49 65.6941 49C49.2212 49 34.3913 42.8848 23.172 32.7139C22.2905 31.9141 23.0803 30.8241 24.1381 31.4469C36.2459 38.5177 51.2168 42.7715 66.6813 42.7715C77.1109 42.7715 88.5841 40.6057 99.1335 36.1113C100.727 35.4318 102.06 37.1588 100.502 38.3195Z" fill="#393939"/>
<path fill-rule="evenodd" clip-rule="evenodd" d="M104.415 33.8251C103.217 32.2821 96.461 33.0961 93.4287 33.4571C92.5049 33.5703 92.3639 32.7634 93.196 32.183C98.5765 28.3822 107.405 29.4793 108.435 30.7533C109.464 32.0344 108.167 40.9171 103.111 45.1567C102.335 45.8079 101.595 45.4611 101.94 44.5976C103.076 41.7523 105.621 35.3752 104.415 33.8251Z" fill="#393939"/>
<path fill-rule="evenodd" clip-rule="evenodd" d="M93.64 5.3509V1.65626C93.64 1.09711 94.0631 0.721985 94.5709 0.721985H111.051C111.58 0.721985 112.003 1.10419 112.003 1.65626V4.82006C111.996 5.3509 111.551 6.04453 110.762 7.14159L102.222 19.3792C105.395 19.3013 108.745 19.7756 111.622 21.4035C112.271 21.7715 112.447 22.3094 112.496 22.8403V26.7826C112.496 27.3205 111.904 27.9505 111.284 27.6249C106.213 24.9565 99.4789 24.6663 93.8727 27.6532C93.3015 27.9646 92.7021 27.3418 92.7021 26.8039V23.0597C92.7021 22.4581 92.7092 21.4318 93.3086 20.5187L103.202 6.2781H94.592C94.0631 6.2781 93.64 5.90297 93.64 5.3509Z" fill="#393939"/>
<path fill-rule="evenodd" clip-rule="evenodd" d="M33.5236 28.4034H28.5098C28.0303 28.368 27.6495 28.0071 27.6143 27.547V1.71994C27.6143 1.20326 28.0444 0.792738 28.5804 0.792738H33.2557C33.7422 0.813957 34.1301 1.1891 34.1653 1.65623V5.03237H34.257C35.477 1.76948 37.7688 0.247742 40.8575 0.247742C43.9955 0.247742 45.9559 1.76948 47.3662 5.03237C48.5791 1.76948 51.3364 0.247742 54.2911 0.247742C56.3925 0.247742 58.6914 1.11832 60.0947 3.0718C61.6813 5.2447 61.3569 8.40142 61.3569 11.1689L61.3499 27.4692C61.3499 27.9858 60.9197 28.4034 60.3838 28.4034H55.377C54.8764 28.368 54.4744 27.9646 54.4744 27.4692V13.7806C54.4744 12.6906 54.5731 9.97271 54.3334 8.93934C53.9596 7.20527 52.8384 6.7169 51.3857 6.7169C50.1728 6.7169 48.9035 7.53085 48.3887 8.83318C47.874 10.1355 47.9233 12.3155 47.9233 13.7806V27.4692C47.9233 27.9858 47.4932 28.4034 46.9572 28.4034H41.9505C41.4428 28.368 41.0479 27.9646 41.0479 27.4692L41.0408 13.7806C41.0408 10.8999 41.5133 6.66027 37.9521 6.66027C34.3487 6.66027 34.4897 10.7937 34.4897 13.7806V27.4692C34.4897 27.9858 34.0596 28.4034 33.5236 28.4034" fill="#393939"/>
<path fill-rule="evenodd" clip-rule="evenodd" d="M126.191 0.247742C133.631 0.247742 137.657 6.66027 137.657 14.814C137.657 22.6916 133.208 28.9413 126.191 28.9413C118.885 28.9413 114.908 22.5288 114.908 14.5379C114.908 6.49748 118.935 0.247742 126.191 0.247742ZM126.233 5.52074C122.538 5.52074 122.306 10.5743 122.306 13.724C122.306 16.8807 122.256 23.6188 126.191 23.6188C130.077 23.6188 130.26 18.183 130.26 14.8706C130.26 12.6906 130.168 10.086 129.512 8.01922C128.948 6.22145 127.827 5.52074 126.233 5.52074Z" fill="#393939"/>
<path fill-rule="evenodd" clip-rule="evenodd" d="M147.304 28.4034H142.311C141.81 28.368 141.408 27.9646 141.408 27.4692L141.401 1.635C141.444 1.16078 141.86 0.792738 142.367 0.792738H147.015C147.452 0.813957 147.811 1.11124 147.91 1.51468V5.46412H148.002C149.405 1.93227 151.373 0.247742 154.835 0.247742C157.084 0.247742 159.278 1.0617 160.688 3.29122C162 5.35795 162 8.83317 162 11.3317V27.5895C161.943 28.0425 161.527 28.4034 161.033 28.4034H156.006C155.547 28.368 155.166 28.0283 155.117 27.5895V13.5612C155.117 10.7371 155.441 6.60365 151.979 6.60365C150.759 6.60365 149.638 7.42468 149.081 8.67038C148.376 10.2487 148.284 11.82 148.284 13.5612V27.4692C148.277 27.9858 147.84 28.4034 147.304 28.4034" fill="#393939"/>
<path fill-rule="evenodd" clip-rule="evenodd" d="M80.5029 16.0668C80.5029 18.0273 80.5523 19.6623 79.565 21.4035C78.7682 22.8191 77.4989 23.6896 76.0956 23.6896C74.1704 23.6896 73.0422 22.2174 73.0422 20.0445C73.0422 15.7554 76.8713 14.9768 80.5029 14.9768V16.0668ZM85.559 28.3327C85.2276 28.63 84.7481 28.6512 84.3743 28.453C82.7101 27.0658 82.4069 26.4217 81.4972 25.0981C78.747 27.9151 76.7937 28.7574 73.2326 28.7574C69.0086 28.7574 65.7295 26.1456 65.7295 20.9151C65.7295 16.8312 67.9296 14.0496 71.0747 12.6907C73.7967 11.4874 77.5976 11.2751 80.5029 10.9424V10.2913C80.5029 9.0951 80.5946 7.67953 79.8894 6.64617C79.283 5.71897 78.1124 5.33676 77.0758 5.33676C75.1647 5.33676 73.4653 6.32058 73.0492 8.359C72.9646 8.81199 72.6332 9.25789 72.1748 9.27913L67.3161 8.75536C66.9071 8.66335 66.4488 8.33069 66.5687 7.70077C67.6828 1.78368 73.014 6.10352e-05 77.7809 6.10352e-05C80.2208 6.10352e-05 83.4082 0.651225 85.3334 2.50562C87.7733 4.79177 87.5406 7.84232 87.5406 11.1618V19.0041C87.5406 21.361 88.5137 22.3944 89.4304 23.6684C89.7478 24.1214 89.8183 24.6664 89.4093 25.0061C88.3868 25.8625 86.5674 27.4551 85.5661 28.3469L85.559 28.3327" fill="#393939"/>
<path fill-rule="evenodd" clip-rule="evenodd" d="M14.7734 16.0668C14.7734 18.0274 14.8228 19.6624 13.8355 21.4035C13.0387 22.8191 11.7764 23.6897 10.3661 23.6897C8.44095 23.6897 7.31972 22.2175 7.31972 20.0446C7.31972 15.7554 11.1488 14.9769 14.7734 14.9769V16.0668ZM19.8295 28.3328C19.4981 28.63 19.0186 28.6513 18.6448 28.4531C16.9806 27.0658 16.6844 26.4217 15.7677 25.0982C13.0175 27.9152 11.0713 28.7574 7.50306 28.7574C3.28611 28.7574 0 26.1457 0 20.9152C0 16.8313 2.2072 14.0497 5.34523 12.6907C8.06721 11.4875 11.8681 11.2751 14.7734 10.9425V10.2913C14.7734 9.09516 14.8651 7.67959 14.167 6.64623C13.5535 5.71903 12.3829 5.33682 11.3533 5.33682C9.4423 5.33682 7.73577 6.32064 7.31972 8.35907C7.2351 8.81205 6.90367 9.25796 6.45236 9.27919L1.58665 8.75542C1.17764 8.66342 0.726329 8.33075 0.839158 7.70083C1.96039 1.78375 7.28446 0.00012207 12.0514 0.00012207C14.4914 0.00012207 17.6787 0.651286 19.6039 2.50568C22.0438 4.79183 21.8111 7.84238 21.8111 11.1619V19.0042C21.8111 21.3611 22.7842 22.3944 23.701 23.6685C24.0253 24.1214 24.0958 24.6664 23.6868 25.0062C22.6643 25.8626 20.845 27.4551 19.8436 28.3469L19.8295 28.3327" fill="#393939"/>
</g>
<defs>
<clipPath id="clip0_2_3198">
<rect width="162" height="49" fill="white"/>
</clipPath>
</defs>
</svg>
