<svg width="214" height="69" viewBox="0 0 214 69" fill="none" xmlns="http://www.w3.org/2000/svg">
<path fill-rule="evenodd" clip-rule="evenodd" d="M194.347 6.22392C196.126 6.15632 197.905 6.07605 199.688 6C198.708 15.7639 197.732 25.5279 196.76 35.2961C194.939 35.3045 193.118 35.3256 191.297 35.3383C191.369 34.4257 191.436 33.5131 191.517 32.6005C191.542 32.3808 191.491 32.1653 191.441 31.9541C190.469 33.2638 189.21 34.3835 187.714 35.051C185.986 35.8326 183.954 35.9509 182.163 35.3172C180.743 34.7848 179.788 33.492 179.214 32.1442C178.36 30.1458 178.136 27.9277 178.267 25.7729C178.398 23.8125 178.85 21.8691 179.67 20.0819C180.346 18.6158 181.292 17.2511 182.539 16.2118C183.903 15.0541 185.619 14.281 187.418 14.1627C189.48 14.019 191.567 14.6063 193.325 15.6837C193.363 15.6372 193.443 15.5358 193.486 15.4893C193.764 12.4009 194.06 9.31239 194.347 6.22392ZM186.945 19.0763C185.686 19.8199 184.905 21.1593 184.55 22.545C184.047 24.5477 183.738 26.6644 184.127 28.7135C184.317 29.6684 184.769 30.6528 185.635 31.1682C186.286 31.5569 187.106 31.4724 187.794 31.2105C188.623 30.8852 189.392 30.3866 190 29.7318C191.208 28.4474 191.859 26.7574 192.264 25.0716C192.708 23.1365 192.869 21.1381 192.822 19.1524C192.319 18.9116 191.774 18.7806 191.238 18.6412C189.818 18.3327 188.234 18.3158 186.945 19.0763Z" fill="#393939"/>
<path fill-rule="evenodd" clip-rule="evenodd" d="M8.11804 7.42383C11.6882 7.44073 15.254 7.4534 18.8242 7.4703C20.3409 7.4365 21.8619 7.7238 23.2731 8.27728C24.3462 8.72512 25.4025 9.35887 26.0658 10.3391C26.7629 11.3362 26.9953 12.5952 26.8812 13.7909C26.7925 15.426 26.3024 17.0864 25.2715 18.3834C24.7645 19.0468 24.1012 19.5707 23.404 20.0185C23.0998 20.2213 22.7787 20.4114 22.5464 20.6987C22.7745 20.9353 23.0365 21.1297 23.3111 21.3114C24.2237 21.924 25.1109 22.6296 25.694 23.5844C26.4714 24.7801 26.6953 26.2799 26.4545 27.6784C26.1292 29.5247 25.2884 31.3246 23.8984 32.6132C21.7479 34.5694 18.7523 35.3256 15.9005 35.3087C12.267 35.2792 8.63349 35.2749 5 35.258C6.03935 25.98 7.07869 16.7019 8.11804 7.42383ZM13.15 12.1516C12.9472 14.2683 12.7486 16.3808 12.5458 18.4975C12.5796 18.5313 12.6472 18.5989 12.6853 18.6327C14.1471 18.6327 15.6089 18.6327 17.0708 18.6369C17.8102 18.6707 18.558 18.506 19.2213 18.1891C20.1973 17.6525 20.6832 16.5667 20.9324 15.5316C21.1606 14.6908 21.1648 13.7064 20.6029 12.9924C20.1001 12.3797 19.3523 11.8812 18.5326 11.9108C16.8426 11.8939 15.1526 11.8601 13.4626 11.8347C13.2767 11.7967 13.1416 11.9826 13.15 12.1516ZM12.0304 23.5422C11.8107 25.8786 11.5868 28.2192 11.3628 30.5556C11.3375 30.6824 11.3544 30.9021 11.5276 30.8936C13.3443 30.9021 15.1611 30.9021 16.9736 30.8936C17.7468 30.788 18.5876 30.6824 19.196 30.1458C19.9353 29.5163 20.3367 28.5995 20.662 27.708C20.9113 27.032 20.9958 26.2673 20.7634 25.5786C20.5268 24.8604 19.9565 24.3069 19.3481 23.8886C19.0396 23.7027 18.7143 23.4788 18.3341 23.4915C16.2807 23.4661 14.2274 23.4323 12.174 23.3985C12.136 23.4365 12.0642 23.5084 12.0304 23.5422Z" fill="#393939"/>
<path fill-rule="evenodd" clip-rule="evenodd" d="M38.9983 14.3613C40.7432 14.0782 42.5262 14.1374 44.2711 14.3824C46.316 14.8725 48.3567 15.3795 50.4016 15.8738C49.658 22.3338 48.9101 28.7896 48.1665 35.2496C46.3794 35.2412 44.5922 35.2158 42.805 35.2158C42.9149 34.1723 43.0036 33.1287 43.1134 32.0851C43.0712 32.0302 42.9867 31.9246 42.9487 31.8739C41.7192 33.3822 40.1391 34.6497 38.3012 35.3215C36.7041 35.9087 34.8409 35.9045 33.3368 35.0553C31.9215 34.2948 30.9751 32.8921 30.4343 31.4133C29.6273 29.1741 29.64 26.7109 30.1216 24.3999C30.6202 21.9451 31.4694 19.482 33.1002 17.5385C34.5705 15.7767 36.7506 14.712 38.9983 14.3613ZM37.5534 20.0481C36.607 21.0114 36.1591 22.3254 35.8549 23.614C35.4789 25.1392 35.2592 26.7278 35.4578 28.2953C35.5676 29.0304 35.7873 29.7783 36.2521 30.3698C36.6365 30.8599 37.1858 31.2443 37.8153 31.3246C38.7237 31.4514 39.6321 31.1345 40.4179 30.6993C41.677 29.9219 42.4543 28.5784 42.974 27.2264C43.9415 24.6787 44.2457 21.9325 44.3767 19.2242C44.2753 19.1566 44.1824 19.0764 44.0641 19.0383C42.9782 18.6412 41.8079 18.4553 40.6545 18.5652C39.4842 18.6581 38.3519 19.182 37.5534 20.0481Z" fill="#393939"/>
<path fill-rule="evenodd" clip-rule="evenodd" d="M66.3515 14.6443C67.9908 14.074 69.8878 13.9726 71.4806 14.7415C72.6678 15.3077 73.3903 16.5118 73.7537 17.737C74.3367 19.7397 74.2691 21.8564 74.1086 23.914C73.7537 27.7333 73.3269 31.5443 72.8284 35.351C71.0285 35.3299 69.2287 35.3087 67.4289 35.2918C67.7415 32.7104 68.0542 30.1247 68.333 27.539C68.5316 25.718 68.7471 23.9013 68.8654 22.0761C68.971 20.8382 68.3964 19.5538 67.3739 18.844C66.7867 18.4341 65.9881 18.4046 65.3502 18.7088C64.7122 19.0003 64.1967 19.4862 63.7362 20.0058C62.9588 20.8973 62.3716 21.9367 61.8434 22.9887C61.1632 24.6195 60.9097 26.3898 60.6942 28.1305C60.4365 30.543 60.1661 32.9554 59.9422 35.3763C58.1423 35.3341 56.3425 35.2876 54.5469 35.2538C55.2651 28.3713 55.9918 21.4888 56.6974 14.6021C58.5141 14.5725 60.3309 14.5429 62.1519 14.5007C62.004 15.502 61.8984 16.5076 61.7632 17.5089C61.7505 17.6736 61.6829 17.8595 61.8139 17.9947C61.911 17.9314 61.9955 17.8511 62.0758 17.7624C63.187 16.3681 64.6699 15.2527 66.3515 14.6443Z" fill="#393939"/>
<path fill-rule="evenodd" clip-rule="evenodd" d="M141.539 14.3063C143.436 14.1626 145.413 14.1373 147.226 14.8091C148.704 15.3456 150.048 16.3301 150.863 17.6905C151.852 19.2706 152.135 21.2057 151.932 23.0393C151.793 24.2688 151.696 25.5067 151.522 26.7362C151.227 28.7642 150.289 30.6823 148.932 32.216C147.019 34.3623 144.2 35.7059 141.311 35.7312C140.275 35.727 139.232 35.7692 138.201 35.6129C136.494 35.3636 134.838 34.62 133.608 33.3948C132.396 32.1653 131.669 30.5049 131.471 28.798C131.297 27.3953 131.53 25.9926 131.627 24.5984C131.775 22.5999 132.409 20.6269 133.549 18.9749C135.345 16.3343 138.383 14.6485 141.539 14.3063ZM141.442 18.3961C140.453 18.62 139.65 19.3002 139.012 20.0523C137.977 21.2986 137.386 22.8915 137.28 24.5012C137.179 26.0306 136.929 27.5939 137.288 29.1064C137.487 29.9725 137.998 30.8091 138.805 31.2231C139.553 31.6034 140.419 31.4851 141.226 31.4978C142.265 31.4978 143.241 30.9823 143.968 30.2683C145.176 29.1318 145.865 27.5221 146.068 25.8912C146.233 24.4927 146.533 23.0858 146.351 21.6747C146.237 20.7283 145.895 19.7607 145.172 19.1059C144.648 18.5862 143.909 18.3243 143.174 18.3243C142.595 18.3243 142.012 18.2778 141.442 18.3961Z" fill="#393939"/>
<path fill-rule="evenodd" clip-rule="evenodd" d="M164.658 14.3443C165.643 14.2091 166.64 14.2175 167.633 14.2429C169.458 14.2978 171.313 14.8344 172.762 15.9751C174.143 17.0483 175.014 18.696 175.293 20.4113C175.457 21.3789 175.44 22.3675 175.322 23.3435C175.187 24.5096 175.102 25.6884 174.929 26.8545C174.388 30.264 172.06 33.3229 168.926 34.7636C167.582 35.3932 166.099 35.7312 164.616 35.7312C163.602 35.7269 162.584 35.765 161.583 35.6044C159.909 35.3509 158.279 34.62 157.066 33.4243C155.858 32.216 155.118 30.5809 154.907 28.8951C154.708 27.4713 154.945 26.039 155.046 24.6194C155.194 22.6717 155.79 20.7451 156.876 19.1143C158.604 16.4821 161.557 14.7625 164.658 14.3443ZM164.924 18.3834C164.367 18.4974 163.847 18.7678 163.399 19.1143C162.149 20.0987 161.312 21.5436 160.928 23.0731C160.733 23.7998 160.7 24.5603 160.64 25.3081C160.531 26.6432 160.391 28.0248 160.776 29.3345C160.999 30.133 161.515 30.8724 162.271 31.2442C162.998 31.5991 163.83 31.485 164.616 31.4977C165.677 31.5062 166.678 30.978 167.417 30.2429C168.617 29.1021 169.297 27.4967 169.492 25.87C169.656 24.4842 169.956 23.09 169.775 21.6873C169.665 20.7493 169.331 19.7945 168.63 19.1396C168.114 18.6157 167.388 18.3369 166.661 18.3242C166.078 18.3242 165.495 18.282 164.924 18.3834Z" fill="#393939"/>
<path fill-rule="evenodd" clip-rule="evenodd" d="M84.2066 15.5357C85.9811 14.6485 88.0006 14.3823 89.9652 14.3992C93.0157 14.4457 96.0323 15.109 98.9095 16.0976C98.3476 20.2212 97.7434 24.3448 97.4392 28.498C97.2914 30.4499 97.266 32.4103 96.9365 34.3411C96.6534 36.0607 96.1675 37.7718 95.2887 39.2886C94.4015 40.8392 93.096 42.1489 91.5496 43.0488C89.9948 43.8727 88.1992 44.067 86.4627 44.0839C83.7418 44.067 81.0421 43.5769 78.4183 42.8883C78.807 41.6039 79.1493 40.3068 79.5211 39.0224C81.9124 39.766 84.4559 39.9519 86.9444 39.7533C87.8358 39.7195 88.7484 39.4703 89.4371 38.883C90.468 38.0676 91.0595 36.8296 91.3679 35.579C91.6383 34.5144 91.7355 33.4074 91.7397 32.3131C91.7609 32.1315 91.6848 31.9709 91.6045 31.8188C90.599 33.0229 89.3991 34.0876 88.0133 34.8354C86.7162 35.5368 85.1952 35.9128 83.7249 35.6635C82.525 35.4565 81.3927 34.8862 80.4844 34.075C79.3352 32.9891 78.7099 31.4597 78.431 29.926C78.0296 27.5769 78.2958 25.156 78.9676 22.883C79.5211 21.0704 80.3407 19.3213 81.5153 17.8256C82.242 16.8877 83.1461 16.0723 84.2066 15.5357ZM88.1358 18.7763C86.7711 19.1945 85.6811 20.2804 85.06 21.5479C84.2995 23.1069 83.8475 24.8222 83.7841 26.5587C83.763 27.6614 83.8601 28.8064 84.384 29.7993C84.7939 30.5809 85.5459 31.2484 86.4543 31.3245C87.6711 31.4259 88.8963 30.9062 89.7455 30.0443C90.9116 28.9036 91.5327 27.3488 91.9848 25.8109C92.5974 23.6392 92.8256 21.3746 92.9016 19.1227C92.7875 19.0298 92.6608 18.9537 92.5171 18.9199C91.1144 18.4678 89.5639 18.3242 88.1358 18.7763Z" fill="#393939"/>
<path fill-rule="evenodd" clip-rule="evenodd" d="M116.751 14.5177C119.214 14.2177 121.711 14.5092 124.128 15.0289C125.408 15.3078 126.671 15.6669 127.909 16.0978C127.258 20.8045 126.57 25.5069 126.32 30.2558C126.198 32.7063 125.978 35.1948 125.116 37.5143C124.267 39.8465 122.619 41.8998 120.439 43.104C118.677 43.987 116.654 44.1222 114.714 44.0715C112.247 43.9701 109.805 43.5265 107.422 42.8843C107.79 41.5956 108.153 40.307 108.516 39.0184C111.11 39.8338 113.89 39.9817 116.582 39.6859C117.913 39.5212 119.015 38.5748 119.645 37.434C120.557 35.7694 120.748 33.8217 120.735 31.9542C120.672 31.95 120.549 31.9373 120.49 31.9331C119.421 33.2217 118.094 34.3287 116.573 35.0511C115.149 35.7314 113.472 35.968 111.951 35.4821C110.671 35.068 109.458 34.2991 108.698 33.171C107.777 31.8359 107.38 30.2093 107.266 28.608C107.08 25.4942 107.849 22.3466 109.332 19.6088C110.147 18.1554 111.195 16.7738 112.614 15.8697C113.857 15.0838 115.306 14.7036 116.751 14.5177ZM115.365 19.7989C114.372 20.6693 113.819 21.9072 113.405 23.1367C112.864 24.7886 112.614 26.5589 112.885 28.2869C113.058 29.339 113.536 30.4205 114.469 30.9994C115.268 31.4895 116.273 31.3965 117.118 31.0881C118.01 30.7797 118.741 30.129 119.315 29.3939C120 28.5109 120.439 27.4715 120.794 26.4153C121.55 24.0577 121.817 21.5692 121.893 19.106C121.377 18.7976 120.769 18.7173 120.194 18.599C118.521 18.316 116.637 18.6033 115.365 19.7989Z" fill="#393939"/>
<path fill-rule="evenodd" clip-rule="evenodd" d="M76.833 46.9106C79.9637 48.9555 83.3057 50.6793 86.7786 52.0651C89.6896 53.2185 92.7105 54.1184 95.8201 54.5409C98.8874 54.9719 102.014 54.7817 105.056 54.2494C109.513 53.4509 113.84 52.0059 117.989 50.2061C119.463 49.5597 120.925 48.871 122.336 48.0851C120.05 50.9454 117.245 53.3917 114.097 55.2592C110.13 57.6252 105.593 59.0236 100.979 59.2602C97.8354 59.4546 94.6582 59.0109 91.6838 57.9843C88.7179 56.9787 85.9548 55.4197 83.462 53.5311C80.9777 51.6214 78.73 49.4033 76.833 46.9106Z" fill="#393939"/>
</svg>
