<svg width="188" height="41" viewBox="0 0 188 41" fill="none" xmlns="http://www.w3.org/2000/svg">
<path d="M2.46016 0.73016C2.03789 0.917374 1.50547 1.36669 1.2668 1.70367L0.826172 2.34021L0.771094 20.2379L0.734375 38.1356L1.15664 38.7722C1.37695 39.1092 1.8543 39.5959 2.18477 39.8206L2.80898 40.2512H94.0367C174.745 40.2512 185.32 40.2137 185.797 39.9703C186.091 39.8206 186.568 39.3713 186.843 38.9968L187.357 38.3228L187.412 20.5375L187.449 2.75208L186.99 1.96577C186.696 1.42285 186.274 1.0297 185.742 0.767601L184.952 0.374451H94.0734C5.85664 0.374451 3.19453 0.393173 2.46016 0.73016ZM144.084 20.3502L144.029 37.911L73.8781 37.9671C13.5125 38.0046 3.69023 37.9671 3.37812 37.7425C3.0293 37.4804 3.0293 37.0872 3.0293 20.3128C3.0293 5.27947 3.06602 3.14523 3.30469 2.99546C3.46992 2.88313 29.8891 2.80824 73.8598 2.80824H144.121L144.084 20.3502ZM151.887 9.58541C152.75 10.0347 152.732 9.95984 152.75 18.2909V26.2101H153.448C153.815 26.2101 154.953 26.079 155.963 25.9292C164.941 24.5439 172.798 19.3767 177.774 11.5886C179.004 9.67902 179.224 9.47308 180.014 9.47308C181.372 9.47308 181.831 10.5964 181.115 12.0754C180.473 13.3671 178.104 16.5872 176.507 18.3283C170.265 25.1804 160.81 29.3927 151.722 29.3927H149.812V19.8822C149.812 9.86623 149.794 10.0534 150.639 9.58541C151.116 9.30459 151.391 9.30459 151.887 9.58541ZM178.196 22.5032C180.454 25.405 181.666 27.4644 181.482 28.1197C181.152 29.2055 179.904 29.7671 179.151 29.1493C178.986 29.037 178.27 28.0448 177.572 26.9589C176.856 25.8731 175.901 24.5439 175.442 24.0009C174.983 23.4393 174.598 22.9338 174.598 22.8589C174.598 22.7092 176.801 21.3612 177.095 21.3425C177.205 21.3425 177.7 21.8667 178.196 22.5032Z" fill="#393939"/>
<path d="M102.629 10.9521C102.299 11.3639 102.537 29.4114 102.868 29.6174C103.125 29.7859 105.971 29.8233 106.374 29.6548C106.632 29.5612 106.668 28.9059 106.668 24.3566V19.1895L111.956 24.5813C115.426 28.1196 117.353 29.9543 117.61 29.9543C118.418 29.9543 118.418 29.9731 118.418 20.369C118.418 11.5324 118.4 11.2329 118.069 11.0457C117.555 10.7836 114.691 10.8023 114.416 11.0831C114.251 11.2516 114.196 12.6183 114.196 16.0443C114.196 18.6466 114.14 20.7808 114.085 20.7808C114.03 20.7808 111.662 18.4968 108.835 15.726C103.602 10.5964 103.18 10.2781 102.629 10.9521Z" fill="#393939"/>
<path d="M127.579 10.9146C125.541 11.5137 124.183 12.8242 123.632 14.7525C123.265 16.0069 123.412 17.1676 124.072 18.4219C124.77 19.7137 125.89 20.6311 128.313 21.8667C131.251 23.3457 131.93 24.4315 130.719 25.6859C130.186 26.2101 130.076 26.2475 129.158 26.1726C128.479 26.1165 127.689 25.8544 126.79 25.3863C126.037 24.9932 125.284 24.7124 125.137 24.7498C124.972 24.7685 124.495 25.4238 124.091 26.1726L123.356 27.5206L123.834 28.0073C124.091 28.2694 124.807 28.7188 125.449 29.037C130.406 31.3959 135.804 28.9434 135.749 24.3379C135.731 21.7169 134.519 20.2754 130.774 18.4219C128.864 17.4672 128.222 17.0553 127.946 16.606C127.487 15.8197 127.506 15.4265 128.056 14.8836C128.828 14.0786 130.553 14.3407 132.389 15.5388C132.867 15.8571 133.362 16.063 133.528 15.9882C133.931 15.8384 135.308 13.6293 135.308 13.1425C135.308 12.6932 134.06 11.8694 132.371 11.2142C131.122 10.7274 128.736 10.5777 127.579 10.9146Z" fill="#393939"/>
<path d="M9.69375 11.0644C9.38164 11.2329 9.36328 11.8881 9.36328 20.3128C9.36328 29.0932 9.38164 29.3927 9.71211 29.5799C10.1711 29.8233 13.0352 29.8233 13.4023 29.5799C13.6227 29.4301 13.6961 28.6813 13.7695 25.3489L13.8613 21.2676L16.8539 25.4238L19.8648 29.5986L22.0863 29.5425C24.1977 29.4863 24.3262 29.4676 24.3812 29.0932C24.418 28.8311 23.4082 27.3521 21.1867 24.4128C19.4059 22.0539 17.9187 20.032 17.8637 19.9009C17.827 19.7886 19.1488 17.9352 20.8195 15.8196C22.7473 13.3671 23.8672 11.7758 23.8672 11.5137C23.8672 10.9708 23.4816 10.8585 21.5355 10.8585C20.232 10.8585 19.975 10.9146 19.5895 11.2703C19.3324 11.5137 17.9555 13.2174 16.5051 15.0708L13.8613 18.4219L13.7695 14.8274C13.6961 11.8881 13.6227 11.1767 13.4023 11.0457C13.0352 10.8023 10.0977 10.821 9.69375 11.0644Z" fill="#393939"/>
<path d="M29.7055 11.0644C29.3934 11.2329 29.375 11.8882 29.375 20.4064V29.58L29.834 29.6923C30.091 29.7484 31.982 29.7672 34.0199 29.7297C38.0223 29.6361 38.6648 29.5051 40.0234 28.5128C40.409 28.232 40.9965 27.5955 41.3086 27.1087C42.0613 25.9854 42.2816 24.0571 41.7859 22.99C41.382 22.1288 40.3172 21.0242 39.3992 20.5562C39.0137 20.3503 38.775 20.1256 38.8484 20.0507C38.9402 19.9758 39.3258 19.6763 39.7297 19.3955C40.5926 18.7402 41.4188 17.4297 41.584 16.4749C41.7492 15.4265 41.2719 13.9101 40.4641 12.9553C39.6195 11.9256 38.3527 11.2891 36.7738 11.0457C35.1398 10.8023 30.1094 10.8211 29.7055 11.0644ZM36.3516 15.0708C37.4348 15.6512 37.6184 17.074 36.7371 17.9914C36.2414 18.4969 36.0945 18.5343 34.8094 18.5343H33.4141V16.6621V14.79H34.6074C35.3234 14.79 36.0395 14.9023 36.3516 15.0708ZM36.7188 22.3722C37.0125 22.522 37.343 22.8215 37.4531 23.0087C37.7836 23.664 37.6734 24.6562 37.1961 25.2179C36.7738 25.7046 36.6453 25.7421 35.0848 25.7982L33.4141 25.8731V23.9822V22.0914H34.791C35.6723 22.0914 36.3883 22.2037 36.7188 22.3722Z" fill="#393939"/>
<path d="M46.8715 10.9895C46.6879 11.0644 46.6328 13.1051 46.6328 20.3316V29.58H50.8188C55.3352 29.58 56.0512 29.4676 57.9238 28.5128C59.7414 27.5768 61.8527 24.8809 62.3117 22.9338C62.9543 20.2941 62.7707 18.422 61.6875 16.1754C60.384 13.4608 57.7219 11.4763 54.8027 11.0457C53.4992 10.8585 47.2938 10.8023 46.8715 10.9895ZM54.9313 15.2019C55.3352 15.3142 56.0512 15.7822 56.5469 16.2316C59.2641 18.7215 58.7316 23.4206 55.5371 25.143C54.9496 25.4612 54.3805 25.5548 52.7465 25.611L50.6719 25.6859V20.3316V14.9772H52.4344C53.4074 14.9772 54.5457 15.0708 54.9313 15.2019Z" fill="#393939"/>
<path d="M67.5258 11.0644C67.2137 11.2329 67.1953 11.8882 67.1953 20.2754C67.1953 27.0525 67.2504 29.374 67.4156 29.5425C67.6543 29.7859 70.6285 29.8608 70.9957 29.6174C71.1609 29.505 71.2344 28.5128 71.2711 26.1165L71.3262 22.7466L74.4473 22.6904C76.6504 22.653 77.5867 22.5781 77.6969 22.4096C77.9355 22.0352 77.8621 19.1895 77.6234 18.9461C77.4766 18.7964 76.4668 18.7215 74.3187 18.7215H71.2344V16.8493V14.9772H74.9613C77.6234 14.9772 78.7434 14.921 78.9086 14.7525C79.0555 14.6028 79.1289 13.9101 79.1289 12.8804C79.1289 11.4576 79.0922 11.2142 78.7801 11.0457C78.3027 10.7836 67.948 10.8023 67.5258 11.0644Z" fill="#393939"/>
<path d="M88.309 11.6261C86.7668 14.6777 80.2309 29.3178 80.3043 29.5238C80.3778 29.711 80.8735 29.7672 82.1953 29.7672C83.1867 29.7672 84.0864 29.6923 84.2149 29.6174C84.3434 29.5425 84.6922 28.906 85.0043 28.2133L85.5551 26.9589L89.0801 26.9964L92.6051 27.0525L93.2477 28.363L93.9086 29.6735L95.8914 29.7297C97.7641 29.7859 97.8559 29.7672 97.8559 29.3927C97.8559 29.1868 95.9832 24.937 93.7067 19.9384C89.943 11.7197 89.5024 10.8585 89.1168 10.8585C88.7864 10.8585 88.5844 11.0457 88.309 11.6261ZM90.7141 22.5968L91.0446 23.4019H89.1168C86.8586 23.4019 86.9504 23.664 88.2539 20.837L89.0985 19.0023L89.7227 20.4064C90.0715 21.174 90.5121 22.1662 90.7141 22.5968Z" fill="#393939"/>
</svg>
